# xmcd
#
# Track frame offsets: 
#        150
#        18755
#        34056
#        47747
#        63368
#        75005
#        88296
#        105012
#        120189
#        132769
#        146686
#        164718
#        190001
#
# Disc length: 2712 seconds
#
# Revision: 0
# Processed by: cddbd v1.5.2PL0 Copyright (c) Steve Scherf et al.
# Submitted via: ExactAudioCopy v1.0b3
#
DISCID=960a960d
DTITLE=Cais Sodre Funk Connection - You are somebody
DYEAR=2012
DGENRE=Funk
TTITLE0=Come on baby
TTITLE1=Summer days of fun
TTITLE2=Are you somebody
TTITLE3=Just having a party
TTITLE4=Out of sight
TTITLE5=Seven day fool
TTITLE6=Do what you wanna
TTITLE7=Getting the corners
TTITLE8=Tell mama
TTITLE9=I gotta feeling
TTITLE10=Lose it
TTITLE11=On their own
TTITLE12=Copy cat
EXTD=
EXTT0=
EXTT1=
EXTT2=
EXTT3=
EXTT4=
EXTT5=
EXTT6=
EXTT7=
EXTT8=
EXTT9=
EXTT10=
EXTT11=
EXTT12=
PLAYORDER=
